<?xml version="1.0" encoding="UTF-8" standalone="no"?>
<!-- Created with Inkscape (http://www.inkscape.org/) -->

<svg
   width="210mm"
   height="297mm"
   viewBox="0 0 210 297"
   version="1.1"
   id="svg1"
   xml:space="preserve"
   inkscape:version="1.4.3 (0d15f75, 2025-12-25)"
   sodipodi:docname="roci_logo.svg"
   xmlns:inkscape="http://www.inkscape.org/namespaces/inkscape"
   xmlns:sodipodi="http://sodipodi.sourceforge.net/DTD/sodipodi-0.dtd"
   xmlns="http://www.w3.org/2000/svg"
   xmlns:svg="http://www.w3.org/2000/svg"><sodipodi:namedview
     id="namedview1"
     pagecolor="#ffffff"
     bordercolor="#666666"
     borderopacity="1.0"
     inkscape:showpageshadow="2"
     inkscape:pageopacity="0.0"
     inkscape:pagecheckerboard="0"
     inkscape:deskcolor="#d1d1d1"
     inkscape:document-units="mm"
     inkscape:zoom="1.6302609"
     inkscape:cx="411.28385"
     inkscape:cy="545.61818"
     inkscape:window-width="1920"
     inkscape:window-height="1137"
     inkscape:window-x="1912"
     inkscape:window-y="-8"
     inkscape:window-maximized="1"
     inkscape:current-layer="layer1" /><defs
     id="defs1" /><g
     inkscape:label="Layer 1"
     inkscape:groupmode="layer"
     id="layer1"><path
       id="path18"
       style="fill:#800000;stroke:#632b5d;stroke-width:0;stroke-linecap:round;fill-opacity:0.86666667"
       d="M 89.47981 123.47722 A 4.2174277 4.2174277 0 0 0 85.262496 127.69453 A 4.2174277 4.2174277 0 0 0 89.47981 131.91184 A 4.2174277 4.2174277 0 0 0 93.697123 127.69453 A 4.2174277 4.2174277 0 0 0 89.47981 123.47722 z M 118.69043 123.51959 A 4.2174277 4.2174277 0 0 0 114.47312 127.73691 A 4.2174277 4.2174277 0 0 0 118.69043 131.95422 A 4.2174277 4.2174277 0 0 0 122.90774 127.73691 A 4.2174277 4.2174277 0 0 0 118.69043 123.51959 z " /><path
       id="path14"
       style="fill:#4d4d4d;stroke:#632b5d;stroke-width:0;stroke-linecap:round"
       d="M 73.925203 114.13619 A 13.470491 13.470491 0 0 0 60.454708 127.60668 A 13.470491 13.470491 0 0 0 60.457292 127.8568 L 60.454708 127.8568 L 60.454708 140.42192 L 60.454708 141.07666 L 65.999589 141.07666 L 65.999589 140.42192 L 65.999589 138.49852 L 65.999589 127.8568 A 7.9007001 7.9007001 0 0 1 65.998556 127.73174 A 7.9007001 7.9007001 0 0 1 73.899365 119.83145 A 7.9007001 7.9007001 0 0 1 73.925203 119.83145 L 73.925203 114.13619 z M 118.63772 114.13619 A 13.470491 13.470491 0 0 0 105.16722 127.60668 A 13.470491 13.470491 0 0 0 118.63772 141.07718 A 13.470491 13.470491 0 0 0 128.14205 137.15235 L 124.22187 133.29522 A 7.9007001 7.9007001 0 0 1 118.61188 135.63255 A 7.9007001 7.9007001 0 0 1 110.71107 127.73174 A 7.9007001 7.9007001 0 0 1 118.61188 119.83145 A 7.9007001 7.9007001 0 0 1 124.32471 122.27471 L 128.33894 118.261 A 13.470491 13.470491 0 0 0 118.63772 114.13619 z M 131.34547 114.13619 L 131.34547 141.07718 L 136.89035 141.07718 L 136.89035 114.13619 L 131.34547 114.13619 z M 89.479293 114.22455 A 13.470304 13.470304 0 0 0 76.009314 127.69505 A 13.470304 13.470304 0 0 0 79.238057 136.44438 L 83.196989 132.48545 A 7.9008126 7.9008126 0 0 1 81.578483 127.69505 A 7.9008126 7.9008126 0 0 1 89.479293 119.79424 A 7.9008126 7.9008126 0 0 1 94.270215 121.41223 L 98.229663 117.4533 A 13.470304 13.470304 0 0 0 89.479293 114.22455 z M 99.721562 118.94519 L 95.76263 122.90413 A 7.9008126 7.9008126 0 0 1 97.380619 127.69505 A 7.9008126 7.9008126 0 0 1 89.479293 135.59586 A 7.9008126 7.9008126 0 0 1 84.688888 133.97735 L 80.729956 137.93628 A 13.470304 13.470304 0 0 0 89.479293 141.16503 A 13.470304 13.470304 0 0 0 102.94979 127.69505 A 13.470304 13.470304 0 0 0 99.721562 118.94519 z " /></g></svg>
